#format: frame checksums
#version: 2
#hash: MD5
#extradata 0,                              30, 0e11a510b0c7831954402f81dd258188
#tb 0: 1/51200
#media_type 0: video
#codec_id 0: mpeg4
#dimensions 0: 352x288
#sar 0: 1/1
#tb 1: 1/44100
#media_type 1: audio
#codec_id 1: ac3
#sample_rate 1: 44100
#channel_layout_name 1: mono
#stream#, dts,        pts, duration,     size, hash
1,       -256,       -256,     1536,      416, 91b0c4b4dff3de421544d4a3926616e6
0,          0,          0,     2048,     8695, 8e77f7e12702a9f9dcb5e84590f2d62d
1,       1280,       1280,     1536,      418, 6e79527e2af3448d7a0e4a8e29cd9722
0,       2048,       2048,     2048,      974, fa1a6e06adc28b4d480d71a1adf214b3
1,       2816,       2816,     1536,      418, cf49595ac385e497672e5a814f7bcd79
0,       4096,       4096,     2048,     1189, be89b6c988db4688faf19c5168d3b4ee
1,       4352,       4352,     1536,      418, 846982243d330ab782f0120988d52ade
0,       6144,       6144,     2048,     1280, 3d23d1d381db57f5a42c9cd74eac91d4
1,       5888,       5888,     1536,      418, 77b2d15948434a4831e30c47b8214591
0,       8192,       8192,     2048,     1370, 09c74226a92809c28ab05c08e676e1f3
1,       7424,       7424,     1536,      418, 4fce87d5cce10f6d0268fb398c385af5
0,      10240,      10240,     2048,     1414, 3a098c5a917cd0d686e3bb36f5e14d11
1,       8960,       8960,     1536,      418, 963f2dac9af4672809521f2174b78f10
1,      10496,      10496,     1536,      418, eb7a20193c157b02f7b5d5abf802af24
0,      12288,      12288,     2048,     1409, e9f7e56e767cf4207405b0f93f8f799a
1,      12032,      12032,     1536,      418, 219b234a1e01d3538bfe09fda58b3289
0,      14336,      14336,     2048,     1409, 44c4d3c7ac7baae8e03bfccf0bb638f4
1,      13568,      13568,     1536,      418, ef7bd3e9c13f03aa6676629101a9a8a0
0,      16384,      16384,     2048,     1491, e0ba06c59704b05d5eec1018cbebb7fc
1,      15104,      15104,     1536,      418, f7ef9460b971b5b8b61e91c489d1dd4e
0,      18432,      18432,     2048,     1452, f8f2ce31c66a654802c446e33474973c
1,      16640,      16640,     1536,      418, 48e7a9f574654dd95a325cfec5072254
0,      20480,      20480,     2048,     1495, d994210658a6895d20e03017ed0c4eb2
1,      18176,      18176,     1536,      418, 737d867e328377a3e6623f77f646ea61
0,      22528,      22528,     2048,     1541, ddc7edcdd72225272aaa1984a585b72c
1,      19712,      19712,     1536,      418, ed9eb5db5c03725564239eb25d28c137
0,      24576,      24576,     2048,     8497, 546b30e0069560ea11fae87b32318328
1,      21248,      21248,     1536,      418, 3aa5eac505cb898030c705bcfe5ee850
1,      22784,      22784,     1536,      418, 08ee7262d55437ba687e4f887249d92a
0,      26624,      26624,     2048,     1066, 2fe578483efb208bc42de88513ffdcae
1,      24320,      24320,     1536,      418, eb6d62198a5472a1c179d42cde60b869
0,      28672,      28672,     2048,     1343, 47e9272d0dc6988709154adc87d09c16
1,      25856,      25856,     1536,      418, 53e2ab46c2d6e7c6da1416e2dd581136
0,      30720,      30720,     2048,     1459, 50b30aff889bd9f177545c9cd439f269
1,      27392,      27392,     1536,      418, 6847924a11575b3628ccdfd81a2fb1dc
0,      32768,      32768,     2048,     1480, d43eec6e141bc65564fb24cd17571738
1,      28928,      28928,     1536,      418, 6f76bbe03d8b4e0080226247e0e54f96
0,      34816,      34816,     2048,     1511, 09a4333e7851914e186f199116062ece
1,      30464,      30464,     1536,      418, c946a8d690aa31fde929678b594cc432
0,      36864,      36864,     2048,     1480, b2890c64baa4104a6a03ef8b00217021
1,      32000,      32000,     1536,      418, 3add3833b86a38c229faf8e602f83dcb
0,      38912,      38912,     2048,     1527, 5e2aefdbed877a3d46e7696a2cd2ff27
1,      33536,      33536,     1536,      418, 303adaf2b35e2b8742d0553d21ddb00f
1,      35072,      35072,     1536,      418, f12224af46440d663ea238c313afd664
0,      40960,      40960,     2048,     1495, 3718452b94504fc646ac644b99b901d2
1,      36608,      36608,     1536,      418, 8b986c15b9ab86432c43cedd1a182e8d
0,      43008,      43008,     2048,     1494, 2fdd0fa44b1684f66c791c512d202393
1,      38144,      38144,     1536,      418, 0dd29cc7f63f2afac3eec5e5944165e7
0,      45056,      45056,     2048,     1558, 95a7a28b3b2c6bcd21b2bbfed0eab70d
1,      39680,      39680,     1536,      418, c4c14deb03d5048f8c6101260c617fae
0,      47104,      47104,     2048,     1616, 46e2e34155d9be45e160c41672d85d4d
1,      41216,      41216,     1536,      418, 4a3480d888fa0dd49a7bbf2669b5d3ed
0,      49152,      49152,     2048,     9621, 9bfd0434ad0a0fd68b52dc0b1584322d
1,      42752,      42752,     1536,      418, aaeabe149b9185a6f09c271eb2c656dd
0,      51200,      51200,     2048,     1250, a75b6a523104b9118736dcc277fb740b
1,      44288,      44288,     1536,      418, 0995488ad1bb84ec4a3e738b568484a4
1,      45824,      45824,     1536,      418, baa39bdfd9f47f7d312312985f59fb72
0,      53248,      53248,     2048,     1558, 282d8d743a573f0e9bca846a32e920a0
1,      47360,      47360,     1536,      418, c25bac736a8c356d0a0f9c9299f88880
0,      55296,      55296,     2048,     1627, 6300354f990194616cd295b83083a803
1,      48896,      48896,     1536,      418, 85378fd6c8b49a1f4c5490ab1e4013ca
0,      57344,      57344,     2048,     1684, cc9a9e8a69240ef344dd13337dbdfbc2
1,      50432,      50432,     1536,      418, 77be16e32de134a835b98e1e72f9252a
0,      59392,      59392,     2048,     1728, 73632553a578dc7585a82125b6f05c5a
1,      51968,      51968,     1536,      418, cc9b907fc92fffc61f7e41cdb863d586
0,      61440,      61440,     2048,     1776, 08cfe95d8c91ef04113cf45c371ce0ad
1,      53504,      53504,     1536,      418, fe2f2ca279b14d7053349111578b48c0
0,      63488,      63488,     2048,     1816, e31c78a1347d410e55ac03e7a85f7f12
1,      55040,      55040,     1536,      418, 9131805eaad3bdd768bbc0f2c8d13a0f
0,      65536,      65536,     2048,     1787, 51fbfb9281576ff0aef5649b745a835d
1,      56576,      56576,     1536,      418, 17a096694df972c2ef3a9abbe0a9cd6a
1,      58112,      58112,     1536,      418, c96a64bbfd1aae269e44bfdaea7c8a9c
0,      67584,      67584,     2048,     1914, 190f9ec8e25b54d49c8e9d19fc792ebf
1,      59648,      59648,     1536,      418, 8ea07d1983245453368667ee84bd6ee4
0,      69632,      69632,     2048,     1918, b0ca761b9b5e453ff3fadcb54d8408b6
1,      61184,      61184,     1536,      418, da740d2d75b51d6e28bcb068f6a90d41
0,      71680,      71680,     2048,     1971, dc96e382af65841d8041bcd0bb282d5e
1,      62720,      62720,     1536,      418, 76e6bbbbfa0692659d0d84a30dcfff34
0,      73728,      73728,     2048,    10744, 8069d855ff57d9f9bc7775e69188b3be
1,      64256,      64256,     1536,      418, 0bd304182f1693b18c46b0faa682b159
0,      75776,      75776,     2048,     1406, 9075e4d3d1a8317e9883ef32c515e329
1,      65792,      65792,     1536,      418, ecf7bd4ba9161338ce2cefc1fdd06098
0,      77824,      77824,     2048,     1719, 5010413613c783f294ff2cd78abe60ba
1,      67328,      67328,     1536,      418, 4953c0e441ca0ca2e1970b8b31d6c70e
0,      79872,      79872,     2048,     1886, 01823c725510a2b5977f83e43d0bcacb
1,      68864,      68864,     1536,      418, 4eb7f24aa46b8f0e6b47d0ca6ec0d56d
1,      70400,      70400,     1536,      418, df4d73a6acccd3be6663188f4baab996
0,      81920,      81920,     2048,     1986, 48d1da4829cdb5801769e326f06c480d
1,      71936,      71936,     1536,      418, 5e60f266106b86f19749b64d86b11f43
0,      83968,      83968,     2048,     1924, 3080a21cc85077d8fff4f11f50d20452
1,      73472,      73472,     1536,      418, 62e0ed387d5a37ba78ca99bbd656b124
0,      86016,      86016,     2048,     1916, 6ac5f4c6694317fc30cb41d63123e7ae
1,      75008,      75008,     1536,      416, 97655498b413a59b3f0f6bdc25f69084
0,      88064,      88064,     2048,     2040, 1bb72b33538a5487a50b429e8180eef4
1,      76544,      76544,     1536,      418, d87c94a232b967004c3644c6b8513ba5
0,      90112,      90112,     2048,     1987, 86533ef0835db199f433dcd74ed8727b
1,      78080,      78080,     1536,      418, e763b383810d9a4645901c0d93f98a32
0,      92160,      92160,     2048,     2050, 0bee23e4534f843029dee978a651c7f1
1,      79616,      79616,     1536,      418, f090bb15688066a9c5129348f86245e7
0,      94208,      94208,     2048,     2087, d8fcfb8c1128b6fe1f648b070e0cc10b
1,      81152,      81152,     1536,      418, 2a434a6dca73f03947310d4c25d7470f
1,      82688,      82688,     1536,      418, 53987c0214550f387ce03093b83f4225
0,      96256,      96256,     2048,     2048, fb487d71cdfa2754f3ae6eff04d94373
1,      84224,      84224,     1536,      418, f5548bc014dd98d7d61df1d542d3a176
0,      98304,      98304,     2048,    11155, 3bc188b7c9e53ecba59f236059ec9e9d
1,      85760,      85760,     1536,      418, cf52ea7fc69e4c5bc8f75b354dfe60af
0,     100352,     100352,     2048,     1421, 13186cbde09970d62ae7b67eb230636a
